HIERARCHY
ROOT Hips
{
  OFFSET 0 89.5177 0.535
  CHANNELS 6 Xposition Yposition Zposition Zrotation Xrotation Yrotation
  JOINT Spine
  {
    OFFSET 12.0259 -0.162855 1.69034e-005
    CHANNELS 3 Zrotation Xrotation Yrotation
    JOINT Spine1
    {
      OFFSET 15.3169 -0.0121922 0
      CHANNELS 3 Zrotation Xrotation Yrotation
      JOINT Spine2
      {
        OFFSET 15.3176 -0.0121908 0
        CHANNELS 3 Zrotation Xrotation Yrotation
        JOINT Neck
        {
          OFFSET 19.9142 1.56338 0
          CHANNELS 3 Zrotation Xrotation Yrotation
          JOINT Head
          {
            OFFSET 6.92651 0 0
            CHANNELS 3 Zrotation Xrotation Yrotation
            End Site
            {
              OFFSET 20.7666 0 0
            }
          }
          JOINT LeftShoulder
          {
            OFFSET -6.20654 0.708824 7.28219
            CHANNELS 3 Zrotation Xrotation Yrotation
            JOINT LeftArm
            {
              OFFSET 14.108 0 -1.52588e-005
              CHANNELS 3 Zrotation Xrotation Yrotation
              JOINT LeftForeArm
              {
                OFFSET 28.5802 0 0
                CHANNELS 3 Zrotation Xrotation Yrotation
                JOINT LeftHand
                {
                  OFFSET 27.092 0 0
                  CHANNELS 3 Zrotation Xrotation Yrotation
                  End Site
                  {
                    OFFSET 9.55928 -0.186424 0.145352
                  }
                }
              }
            }
          }
          JOINT RightShoulder
          {
            OFFSET -6.20654 0.708866 -7.28218
            CHANNELS 3 Zrotation Xrotation Yrotation
            JOINT RightArm
            {
              OFFSET 14.108 0 1.52588e-005
              CHANNELS 3 Zrotation Xrotation Yrotation
              JOINT RightForeArm
              {
                OFFSET 28.5802 0 0
                CHANNELS 3 Zrotation Xrotation Yrotation
                JOINT RightHand
                {
                  OFFSET 27.092 0 0
                  CHANNELS 3 Zrotation Xrotation Yrotation
                  End Site
                  {
                    OFFSET 9.55929 -0.186417 -0.145354
                  }
                }
              }
            }
          }
        }
      }
    }
  }
  JOINT LeftUpLeg
  {
    OFFSET 0.005 -0.535 8.837
    CHANNELS 3 Zrotation Xrotation Yrotation
    JOINT LeftLeg
    {
      OFFSET 39.9035 0 0
      CHANNELS 3 Zrotation Xrotation Yrotation
      JOINT LeftFoot
      {
        OFFSET 39.6689 0 0
        CHANNELS 3 Zrotation Xrotation Yrotation
        JOINT LeftToe
        {
          OFFSET 10.1624 13.6296 0
          CHANNELS 3 Zrotation Xrotation Yrotation
          End Site
          {
            OFFSET 8.38147 0 0
          }
        }
      }
    }
  }
  JOINT RightUpLeg
  {
    OFFSET 0.005 -0.535 -8.837
    CHANNELS 3 Zrotation Xrotation Yrotation
    JOINT RightLeg
    {
      OFFSET 39.9035 0 0
      CHANNELS 3 Zrotation Xrotation Yrotation
      JOINT RightFoot
      {
        OFFSET 39.6689 0 0
        CHANNELS 3 Zrotation Xrotation Yrotation
        JOINT RightToe
        {
          OFFSET 10.1624 13.6296 0
          CHANNELS 3 Zrotation Xrotation Yrotation
          End Site
          {
            OFFSET 8.38147 0 0
          }
        }
      }
    }
  }
}
MOTION
Frames:	11
Frame Time:	0.0333333
137.85 90.1213 -64.8472 -96.7016 -22.4644 176.751 1.5971 -0.740229 0.485152 3.2008 -1.46614 0.991022 3.2008 -1.46614 0.991012 -8.30728e-012 -9.0191e-006 -5.27751e-005 -24.6782 -13.5312 1.7175 -178.655 -4.03545 -71.5492 4.92667 -9.95754 59.5514 -16.6734 -3.18055e-015 -0 -22.8621 -29.7342 -27.2082 -178.421 4.54223 70.8105 7.78411 -1.01662 -60.1719 -43.6953 -1.59028e-015 -7.95139e-016 -29.6448 48.7966 34.4425 -17.4449 3.06466 -173.206 -41.8952 9.54166e-015 -0 10.643 13.5681 -9.08132 90 -3.18055e-015 -3.18055e-015 -16.4294 -5.66262 -175.609 -13.6739 6.36111e-015 -1.98785e-015 2.34474 -9.27257 10.6307 90 1.59028e-015 6.36111e-015 
138.893 90.1095 -65.0072 -97.9063 -19.5448 176.324 1.61576 -0.631867 0.18694 3.23386 -1.25773 0.391809 3.23386 -1.25773 0.3918 -8.30828e-012 -9.0191e-006 -5.27751e-005 -26.2088 -12.3925 4.14558 -178.739 -3.77387 -71.5109 7.28535 -9.64446 59.2271 -13.7287 6.36111e-015 -6.36111e-015 -19.8956 -27.829 -25.2321 -178.38 4.75658 71.1709 4.11261 -2.20096 -60.3679 -45.8249 0 -7.95139e-016 -28.2201 49.0553 33.006 -16.5152 1.05498 -173.144 -29.5257 -6.36111e-015 -7.95139e-016 10.2192 11.1073 -5.71538 90 0 -3.18055e-015 -17.4706 -5.74588 -175.175 -14.5198 0 1.59028e-015 3.79759 -11.483 13.2742 90 -3.18055e-015 -6.36111e-015 
139.837 89.6995 -65.091 -98.8467 -16.0944 175.341 1.68313 -0.510741 0.053372 3.36693 -1.01922 0.12188 3.36693 -1.01922 0.121871 -8.30808e-012 -9.0191e-006 -5.27751e-005 -28.0818 -10.872 6.06268 -178.767 -3.65176 -71.3223 8.63895 -8.15877 58.7794 -13.0109 0 -0 -18.0249 -27.6126 -24.2577 -178.359 4.90873 71.4949 0.301453 -3.82132 -59.8945 -49.5513 3.18055e-015 -5.56597e-015 -27.4535 49.6078 32.1678 -15.9139 -1.58884 -170.906 -18.2352 -6.36111e-015 1.19271e-015 8.48182 9.55723 -10.323 90 7.95139e-016 -3.18055e-015 -19.2416 -6.07003 -174.033 -17.2096 0 -1.98785e-015 6.24691 -13.935 16.1008 90 -3.18055e-015 3.18055e-015 
140.779 89.1835 -65.2193 -98.9983 -12.8124 174.469 1.85601 -0.524113 -0.0202821 3.71208 -1.04813 -0.0234315 3.71208 -1.04813 -0.0234408 -8.31126e-012 -9.0191e-006 -5.27751e-005 -29.6617 -8.53768 7.28242 -178.746 -3.60822 -70.8196 8.93167 -5.83453 58.0627 -13.6227 0 -1.59028e-015 -18.2543 -28.9825 -24.8657 -178.415 4.7309 71.4515 -2.46357 -5.16832 -58.8265 -53.8282 0 -7.95139e-016 -27.9448 50.2811 32.4627 -14.6859 -2.62391 -168.832 -11.2284 4.77083e-015 -0 6.05221 9.03566 -9.99443 90 0 -3.97569e-016 -20.9891 -6.94413 -172.987 -21.457 1.59028e-015 -3.97569e-016 9.15455 -16.5431 18.7276 90 -3.18055e-015 -3.18055e-015 
141.625 88.8384 -65.4856 -98.7399 -10.1532 174.27 2.07061 -0.657615 -0.182595 4.13953 -1.32092 -0.341196 4.13953 -1.32092 -0.341206 -8.3042e-012 -9.0191e-006 -5.27751e-005 -30.453 -6.09801 8.37208 -178.736 -3.48397 -70.0503 8.31225 -4.20552 57.2299 -13.5176 9.54166e-015 1.59028e-015 -20.7961 -29.808 -26.4221 -178.37 4.70834 70.8814 -3.6247 -4.99356 -57.8654 -56.7912 -6.36111e-015 3.97569e-015 -29.4016 50.9331 33.9168 -16.0553 -0.378728 -167.85 -15.9032 -1.59028e-015 -7.95139e-016 9.46757 9.26932 -9.91333 90 3.97569e-016 -7.95139e-016 -22.2768 -8.90086 -173.251 -25.2087 -7.95139e-016 7.95139e-016 10.139 -19.3473 23.3422 90 3.18055e-015 6.36111e-015 
142.369 88.7984 -65.9998 -98.7341 -8.36617 174.545 2.1894 -0.780049 -0.411537 4.37377 -1.57475 -0.792936 4.37377 -1.57475 -0.792945 -8.30341e-012 -9.0191e-006 -5.27751e-005 -30.0916 -4.554 8.57308 -178.815 -3.21989 -69.7833 7.31637 -4.24329 56.868 -12.5274 1.59028e-015 7.95139e-016 -23.5763 -29.7294 -28.4793 -178.345 4.67686 70.4899 -1.85936 -3.69212 -58.5251 -58.0624 0 1.59028e-015 -31.6366 50.7285 35.9391 -15.7654 0.803358 -168.085 -16.8093 -1.59028e-015 2.38542e-015 10.2726 8.6259 -8.32366 90 9.93923e-017 7.95139e-016 -25.5948 -14.2824 -175.677 -31.6966 7.95139e-016 1.59028e-015 9.05038 -22.824 28.125 90 0 -0 
143.229 88.7086 -66.606 -98.8187 -6.54062 174.011 2.16046 -0.748529 -0.37506 4.31655 -1.51017 -0.721581 4.31655 -1.51017 -0.72159 -8.31163e-012 -9.0191e-006 -5.27751e-005 -28.7198 -2.63182 7.43449 -178.83 -3.23236 -70.082 7.52721 -5.7156 57.4706 -12.3247 -3.18055e-015 -1.59028e-015 -24.4083 -28.1849 -28.8729 -178.505 4.30361 70.822 1.71893 -2.98047 -60.2454 -58.5209 -4.77083e-015 1.59028e-015 -33.9807 50.1345 38.3267 -15.6425 3.20848 -167.307 -17.4322 -3.18055e-015 -1.59028e-015 12.0139 9.0488 -8.51191 90 0 -3.97569e-016 -29.4873 -20.821 -178.663 -38.1812 1.59028e-015 -0 6.04057 -25.9583 32.4895 90 -3.18055e-015 1.59028e-015 
144.333 88.7377 -67.0936 -98.4395 -5.2795 173.935 2.18573 -0.793982 -0.317663 4.36766 -1.59901 -0.604752 4.36766 -1.59901 -0.604761 -8.3033e-012 -9.0191e-006 -5.27751e-005 -27.6814 -0.650306 6.18523 -178.653 -3.7385 -70.1748 6.89425 -6.65197 57.8499 -14.4322 -6.36111e-015 1.59028e-015 -23.926 -28.7555 -29.2236 -178.543 4.18872 70.8052 4.20178 -2.82561 -61.0028 -58.2918 7.95139e-015 -3.18055e-015 -36.2613 49.7351 40.7372 -14.2505 3.92552 -167.236 -17.4433 0 -2.38542e-015 12.7625 8.49784 -7.48727 90 -1.49089e-016 7.95139e-016 -32.7436 -25.0172 177.808 -43.5301 0 -0 2.69284 -27.7929 34.3249 90 -6.36111e-015 3.18055e-015 
145.563 88.9179 -67.2938 -98.3663 -4.60397 173.687 2.14696 -0.807087 -0.201125 4.29172 -1.62066 -0.371779 4.29172 -1.62066 -0.371788 -8.31259e-012 -9.0191e-006 -5.27751e-005 -27.3074 0.474987 5.4479 -178.585 -3.97466 -70.3906 4.8422 -6.57952 57.65 -17.6204 0 1.59028e-015 -24.3985 -31.2242 -30.1367 -178.411 4.43081 70.2542 5.26753 -3.29391 -60.6627 -56.9756 0 3.18055e-015 -38.5133 49.3616 42.7169 -12.9211 3.43318 -167.045 -17.2045 3.18055e-015 -1.59028e-015 12.9204 7.4076 -7.01391 90 0 -3.97569e-016 -34.9423 -26.1242 175.568 -46.1355 0 -1.59028e-015 0.29412 -27.4113 33.0782 90 0 1.59028e-015 
146.837 89.2236 -67.3969 -98.5024 -4.01828 173.6 2.04361 -0.770264 -0.0753746 4.08675 -1.54225 -0.1231 4.08675 -1.54225 -0.123109 -8.30942e-012 -9.0191e-006 -5.27751e-005 -27.3087 1.39439 4.63162 -178.519 -4.23536 -70.7058 2.04187 -6.00779 57.1484 -21.3391 0 -1.59028e-015 -26.6491 -34.0287 -32.2851 -178.381 4.47161 70.0737 6.2969 -3.75995 -60.4555 -54.064 1.59028e-015 -3.18055e-015 -37.8011 48.465 41.307 -10.9911 3.43526 -167.066 -15.1435 -1.59028e-015 -0 12.2153 6.34043 -6.9214 90 -1.2424e-017 -3.97569e-016 -35.8467 -24.7307 174.581 -45.811 3.18056e-015 7.95139e-016 0.128326 -23.6475 26.9499 90 0 -0 
148.203 89.4766 -67.3195 -98.6294 -3.86051 173.443 1.94966 -0.810548 0.0759583 3.90099 -1.61756 0.179627 3.90099 -1.61756 0.179618 -8.31302e-012 -9.0191e-006 -5.27751e-005 -27.4766 2.43687 4.15133 -178.46 -4.49672 -71.0718 -0.408513 -5.41614 56.4339 -25.6978 5.96354e-016 -1.59028e-015 -29.6664 -36.8075 -35.4769 -178.422 4.31753 69.9031 6.91829 -3.77902 -60.2445 -49.488 -3.97569e-016 -0 -37.1791 46.7227 39.656 -8.61662 4.50326 -166.866 -11.626 -4.77083e-015 -7.95139e-016 11.0766 6.63707 -7.08428 90 3.72721e-017 -3.97569e-016 -34.801 -22.828 174.49 -41.8608 0 2.38542e-015 0.0230656 -18.8389 19.5951 90 -9.54166e-015 1.98785e-016 
